
    <svg
        width="1200"
        height="420"
        viewBox="0 0 1200 420"
        fill="none"
        xmlns="http://www.w3.org/2000/svg">
            <rect xmlns="http://www.w3.org/2000/svg" data-testid="card_bg" id="cardBg"
            x="0" y="0" rx="0" height="100%" stroke="#E4E2E2" fill-opacity="1"
            width="100%" fill="#1a1b27" stroke-opacity="1" style="stroke:#0000; stroke-width:1;"/>

            <style>
                body {
                    font: 600 18px 'Segoe UI', Ubuntu, Sans-Serif;
                }
                .header {
                    font: 600 20px 'Segoe UI', Ubuntu, Sans-Serif;
                    text-align: center;
                    color: #7AA2F7;
                    margin-top: 20px;
                }
                svg {
                    font: 600 18px 'Segoe UI', Ubuntu, Sans-Serif;
                    user-select: none;
                }
                
    .ct-label {
      fill: #7AA2F7;
      color: #7AA2F7;
      font-size: .75rem;
      line-height: 1;
    }

    .ct-grid-background,
    .ct-line {
      fill: none;
    }

    .ct-chart-bar .ct-label,
    .ct-chart-line .ct-label {
      display: block;
      display: -webkit-box;
      display: -moz-box;
      display: -ms-flexbox;
      display: -webkit-flex;
      display: flex;
    }

    .ct-label.ct-horizontal.ct-start {
      -webkit-box-align: flex-end;
      -webkit-align-items: flex-end;
      -ms-flex-align: flex-end;
      align-items: flex-end;
      -webkit-box-pack: flex-start;
      -webkit-justify-content: flex-start;
      -ms-flex-pack: flex-start;
      justify-content: flex-start;
      text-align: left;
      text-anchor: start;
    }

    .ct-label.ct-horizontal.ct-end {
      -webkit-box-align: flex-start;
      -webkit-align-items: flex-start;
      -ms-flex-align: flex-start;
      align-items: flex-start;
      -webkit-box-pack: flex-start;
      -webkit-justify-content: flex-start;
      -ms-flex-pack: flex-start;
      justify-content: flex-start;
      text-align: left;
      text-anchor: start;
    }

    .ct-label.ct-vertical.ct-start {
      -webkit-box-align: flex-end;
      -webkit-align-items: flex-end;
      -ms-flex-align: flex-end;
      align-items: flex-end;
      -webkit-box-pack: flex-end;
      -webkit-justify-content: flex-end;
      -ms-flex-pack: flex-end;
      justify-content: flex-end;
      text-align: right;
      text-anchor: end;
    }

    .ct-label.ct-vertical.ct-end {
      -webkit-box-align: flex-end;
      -webkit-align-items: flex-end;
      -ms-flex-align: flex-end;
      align-items: flex-end;
      -webkit-box-pack: flex-start;
      -webkit-justify-content: flex-start;
      -ms-flex-pack: flex-start;
      justify-content: flex-start;
      text-align: left;
      text-anchor: start;
    }

    .ct-grid {
      stroke: #7AA2F7;
      stroke-width: 1px;
      stroke-opacity: 0.3;
      stroke-dasharray: 2px;
    }

    .ct-point {
      stroke-width: 10px;
      stroke-linecap: round;
      stroke: #F7768E;
      animation: blink 1s ease-in-out forwards;
    }

    .ct-line {
      stroke-width: 4px;
      stroke-dasharray: 5000;
      stroke-dashoffset: 5000;
      stroke: #BB9AF7;
      animation: dash 5s ease-in-out forwards;
    }

    .ct-area {
      stroke: none;
      fill-opacity: 0.1;
    }

    .ct-series-a .ct-area,
    .ct-series-a .ct-slice-pie {
      fill: #70a5fd;
    }

    .ct-label .ct-horizontal {
      transform: rotate(-90deg)
    }
    
                
        @keyframes blink {
            from {
                opacity: 0;
                transform:translateX(-20px); 
            }
            to {
                opacity:1;
                transform: translateX(0);
            }
        }
    
                
        @keyframes dash {
            to {
                stroke-dashoffset: 0;
            }
        }
    
    
            </style>

            <foreignObject x="0" y="0" width="1200" height="50">
                <h1 xmlns="http://www.w3.org/1999/xhtml" class="header">
                    Diego Gil's Contribution Graph
                </h1>
            </foreignObject>
            <svg xmlns:ct="http://gionkunz.github.com/chartist-js/ct" width="1200" height="420" class="ct-chart-line"><g class="ct-grids"><line x1="90" x2="90" y1="80" y2="350" class="ct-grid ct-horizontal"></line><line x1="125.33333333333334" x2="125.33333333333334" y1="80" y2="350" class="ct-grid ct-horizontal"></line><line x1="160.66666666666669" x2="160.66666666666669" y1="80" y2="350" class="ct-grid ct-horizontal"></line><line x1="196" x2="196" y1="80" y2="350" class="ct-grid ct-horizontal"></line><line x1="231.33333333333334" x2="231.33333333333334" y1="80" y2="350" class="ct-grid ct-horizontal"></line><line x1="266.6666666666667" x2="266.6666666666667" y1="80" y2="350" class="ct-grid ct-horizontal"></line><line x1="302" x2="302" y1="80" y2="350" class="ct-grid ct-horizontal"></line><line x1="337.33333333333337" x2="337.33333333333337" y1="80" y2="350" class="ct-grid ct-horizontal"></line><line x1="372.6666666666667" x2="372.6666666666667" y1="80" y2="350" class="ct-grid ct-horizontal"></line><line x1="408" x2="408" y1="80" y2="350" class="ct-grid ct-horizontal"></line><line x1="443.33333333333337" x2="443.33333333333337" y1="80" y2="350" class="ct-grid ct-horizontal"></line><line x1="478.6666666666667" x2="478.6666666666667" y1="80" y2="350" class="ct-grid ct-horizontal"></line><line x1="514" x2="514" y1="80" y2="350" class="ct-grid ct-horizontal"></line><line x1="549.3333333333334" x2="549.3333333333334" y1="80" y2="350" class="ct-grid ct-horizontal"></line><line x1="584.6666666666667" x2="584.6666666666667" y1="80" y2="350" class="ct-grid ct-horizontal"></line><line x1="620" x2="620" y1="80" y2="350" class="ct-grid ct-horizontal"></line><line x1="655.3333333333334" x2="655.3333333333334" y1="80" y2="350" class="ct-grid ct-horizontal"></line><line x1="690.6666666666667" x2="690.6666666666667" y1="80" y2="350" class="ct-grid ct-horizontal"></line><line x1="726" x2="726" y1="80" y2="350" class="ct-grid ct-horizontal"></line><line x1="761.3333333333334" x2="761.3333333333334" y1="80" y2="350" class="ct-grid ct-horizontal"></line><line x1="796.6666666666667" x2="796.6666666666667" y1="80" y2="350" class="ct-grid ct-horizontal"></line><line x1="832" x2="832" y1="80" y2="350" class="ct-grid ct-horizontal"></line><line x1="867.3333333333334" x2="867.3333333333334" y1="80" y2="350" class="ct-grid ct-horizontal"></line><line x1="902.6666666666667" x2="902.6666666666667" y1="80" y2="350" class="ct-grid ct-horizontal"></line><line x1="938" x2="938" y1="80" y2="350" class="ct-grid ct-horizontal"></line><line x1="973.3333333333334" x2="973.3333333333334" y1="80" y2="350" class="ct-grid ct-horizontal"></line><line x1="1008.6666666666667" x2="1008.6666666666667" y1="80" y2="350" class="ct-grid ct-horizontal"></line><line x1="1044" x2="1044" y1="80" y2="350" class="ct-grid ct-horizontal"></line><line x1="1079.3333333333335" x2="1079.3333333333335" y1="80" y2="350" class="ct-grid ct-horizontal"></line><line x1="1114.6666666666667" x2="1114.6666666666667" y1="80" y2="350" class="ct-grid ct-horizontal"></line><line x1="1150" x2="1150" y1="80" y2="350" class="ct-grid ct-horizontal"></line><line y1="350" y2="350" x1="90" x2="1150" class="ct-grid ct-vertical"></line><line y1="311.42857142857144" y2="311.42857142857144" x1="90" x2="1150" class="ct-grid ct-vertical"></line><line y1="272.8571428571429" y2="272.8571428571429" x1="90" x2="1150" class="ct-grid ct-vertical"></line><line y1="234.28571428571428" y2="234.28571428571428" x1="90" x2="1150" class="ct-grid ct-vertical"></line><line y1="195.71428571428572" y2="195.71428571428572" x1="90" x2="1150" class="ct-grid ct-vertical"></line><line y1="157.14285714285714" y2="157.14285714285714" x1="90" x2="1150" class="ct-grid ct-vertical"></line><line y1="118.57142857142858" y2="118.57142857142858" x1="90" x2="1150" class="ct-grid ct-vertical"></line><line y1="80" y2="80" x1="90" x2="1150" class="ct-grid ct-vertical"></line></g><g><g class="ct-series ct-series-a"><path d="M90,350L90,342.286C101.778,339.071,113.556,337.362,125.333,332.643C137.111,327.924,148.889,318.692,160.667,306.029C172.444,293.366,184.222,241.651,196,239.686C207.778,237.72,219.556,236.6,231.333,236.6C243.111,236.6,254.889,259.411,266.667,273.243C278.444,287.075,290.222,321.071,302,321.071C313.778,321.071,325.556,308.729,337.333,308.729C349.111,308.729,360.889,314.514,372.667,314.514C384.444,314.514,396.222,263.891,408,231.2C419.778,198.509,431.556,112.014,443.333,112.014C455.111,112.014,466.889,290.6,478.667,290.6C490.444,290.6,502.222,235.549,514,231.2C525.778,226.851,537.556,227.77,549.333,223.871C561.111,219.973,572.889,194.943,584.667,194.943C596.444,194.943,608.222,244.055,620,249.329C631.778,254.602,643.556,253.48,655.333,258.586C667.111,263.692,678.889,302.943,690.667,302.943C702.444,302.943,714.222,300.629,726,300.629C737.778,300.629,749.556,308.088,761.333,311.043C773.111,313.997,784.889,318.757,796.667,318.757C808.444,318.757,820.222,243.929,832,243.929C843.778,243.929,855.556,292.914,867.333,292.914C879.111,292.914,890.889,276.329,902.667,276.329C914.444,276.329,926.222,321.066,938,326.086C949.778,331.105,961.556,333.431,973.333,334.957C985.111,336.483,996.889,338.043,1008.667,338.043C1020.444,338.043,1032.222,318.817,1044,316.829C1055.778,314.84,1067.556,315,1079.333,313.357C1091.111,311.715,1102.889,304.871,1114.667,304.871C1126.444,304.871,1138.222,329.814,1150,342.286L1150,350Z" class="ct-area"></path><path d="M90,342.286C101.778,339.071,113.556,337.362,125.333,332.643C137.111,327.924,148.889,318.692,160.667,306.029C172.444,293.366,184.222,241.651,196,239.686C207.778,237.72,219.556,236.6,231.333,236.6C243.111,236.6,254.889,259.411,266.667,273.243C278.444,287.075,290.222,321.071,302,321.071C313.778,321.071,325.556,308.729,337.333,308.729C349.111,308.729,360.889,314.514,372.667,314.514C384.444,314.514,396.222,263.891,408,231.2C419.778,198.509,431.556,112.014,443.333,112.014C455.111,112.014,466.889,290.6,478.667,290.6C490.444,290.6,502.222,235.549,514,231.2C525.778,226.851,537.556,227.77,549.333,223.871C561.111,219.973,572.889,194.943,584.667,194.943C596.444,194.943,608.222,244.055,620,249.329C631.778,254.602,643.556,253.48,655.333,258.586C667.111,263.692,678.889,302.943,690.667,302.943C702.444,302.943,714.222,300.629,726,300.629C737.778,300.629,749.556,308.088,761.333,311.043C773.111,313.997,784.889,318.757,796.667,318.757C808.444,318.757,820.222,243.929,832,243.929C843.778,243.929,855.556,292.914,867.333,292.914C879.111,292.914,890.889,276.329,902.667,276.329C914.444,276.329,926.222,321.066,938,326.086C949.778,331.105,961.556,333.431,973.333,334.957C985.111,336.483,996.889,338.043,1008.667,338.043C1020.444,338.043,1032.222,318.817,1044,316.829C1055.778,314.84,1067.556,315,1079.333,313.357C1091.111,311.715,1102.889,304.871,1114.667,304.871C1126.444,304.871,1138.222,329.814,1150,342.286" class="ct-line"></path><line x1="90" y1="342.2857142857143" x2="90.01" y2="342.2857142857143" class="ct-point" ct:value="20" style="--d:0.30s"></line><line x1="125.33333333333334" y1="332.64285714285717" x2="125.34333333333335" y2="332.64285714285717" class="ct-point" ct:value="45" style="--d:0.38s"></line><line x1="160.66666666666669" y1="306.0285714285714" x2="160.67666666666668" y2="306.0285714285714" class="ct-point" ct:value="114" style="--d:0.45s"></line><line x1="196" y1="239.68571428571428" x2="196.01" y2="239.68571428571428" class="ct-point" ct:value="286" style="--d:0.52s"></line><line x1="231.33333333333334" y1="236.6" x2="231.34333333333333" y2="236.6" class="ct-point" ct:value="294" style="--d:0.60s"></line><line x1="266.6666666666667" y1="273.24285714285713" x2="266.6766666666667" y2="273.24285714285713" class="ct-point" ct:value="199" style="--d:0.68s"></line><line x1="302" y1="321.07142857142856" x2="302.01" y2="321.07142857142856" class="ct-point" ct:value="75" style="--d:0.75s"></line><line x1="337.33333333333337" y1="308.7285714285714" x2="337.34333333333336" y2="308.7285714285714" class="ct-point" ct:value="107" style="--d:0.82s"></line><line x1="372.6666666666667" y1="314.51428571428573" x2="372.6766666666667" y2="314.51428571428573" class="ct-point" ct:value="92" style="--d:0.90s"></line><line x1="408" y1="231.2" x2="408.01" y2="231.2" class="ct-point" ct:value="308" style="--d:0.97s"></line><line x1="443.33333333333337" y1="112.0142857142857" x2="443.34333333333336" y2="112.0142857142857" class="ct-point" ct:value="617" style="--d:1.05s"></line><line x1="478.6666666666667" y1="290.6" x2="478.6766666666667" y2="290.6" class="ct-point" ct:value="154" style="--d:1.12s"></line><line x1="514" y1="231.2" x2="514.01" y2="231.2" class="ct-point" ct:value="308" style="--d:1.20s"></line><line x1="549.3333333333334" y1="223.87142857142857" x2="549.3433333333334" y2="223.87142857142857" class="ct-point" ct:value="327" style="--d:1.27s"></line><line x1="584.6666666666667" y1="194.94285714285715" x2="584.6766666666667" y2="194.94285714285715" class="ct-point" ct:value="402" style="--d:1.35s"></line><line x1="620" y1="249.32857142857142" x2="620.01" y2="249.32857142857142" class="ct-point" ct:value="261" style="--d:1.43s"></line><line x1="655.3333333333334" y1="258.5857142857143" x2="655.3433333333334" y2="258.5857142857143" class="ct-point" ct:value="237" style="--d:1.50s"></line><line x1="690.6666666666667" y1="302.9428571428571" x2="690.6766666666667" y2="302.9428571428571" class="ct-point" ct:value="122" style="--d:1.57s"></line><line x1="726" y1="300.62857142857143" x2="726.01" y2="300.62857142857143" class="ct-point" ct:value="128" style="--d:1.65s"></line><line x1="761.3333333333334" y1="311.04285714285714" x2="761.3433333333334" y2="311.04285714285714" class="ct-point" ct:value="101" style="--d:1.73s"></line><line x1="796.6666666666667" y1="318.75714285714287" x2="796.6766666666667" y2="318.75714285714287" class="ct-point" ct:value="81" style="--d:1.80s"></line><line x1="832" y1="243.92857142857144" x2="832.01" y2="243.92857142857144" class="ct-point" ct:value="275" style="--d:1.88s"></line><line x1="867.3333333333334" y1="292.9142857142857" x2="867.3433333333334" y2="292.9142857142857" class="ct-point" ct:value="148" style="--d:1.95s"></line><line x1="902.6666666666667" y1="276.3285714285714" x2="902.6766666666667" y2="276.3285714285714" class="ct-point" ct:value="191" style="--d:2.02s"></line><line x1="938" y1="326.0857142857143" x2="938.01" y2="326.0857142857143" class="ct-point" ct:value="62" style="--d:2.10s"></line><line x1="973.3333333333334" y1="334.95714285714286" x2="973.3433333333334" y2="334.95714285714286" class="ct-point" ct:value="39" style="--d:2.17s"></line><line x1="1008.6666666666667" y1="338.04285714285714" x2="1008.6766666666667" y2="338.04285714285714" class="ct-point" ct:value="31" style="--d:2.25s"></line><line x1="1044" y1="316.8285714285714" x2="1044.01" y2="316.8285714285714" class="ct-point" ct:value="86" style="--d:2.32s"></line><line x1="1079.3333333333335" y1="313.35714285714283" x2="1079.3433333333335" y2="313.35714285714283" class="ct-point" ct:value="95" style="--d:2.40s"></line><line x1="1114.6666666666667" y1="304.87142857142857" x2="1114.6766666666667" y2="304.87142857142857" class="ct-point" ct:value="117" style="--d:2.47s"></line><line x1="1150" y1="342.2857142857143" x2="1150.01" y2="342.2857142857143" class="ct-point" ct:value="20" style="--d:2.55s"></line></g></g><g class="ct-labels"><text x="85.5" y="370" width="35.333333333333336" height="40" class="ct-label ct-horizontal ct-end">13</text><text x="120.83333333333334" y="370" width="35.333333333333336" height="40" class="ct-label ct-horizontal ct-end">14</text><text x="156.16666666666669" y="370" width="35.33333333333333" height="40" class="ct-label ct-horizontal ct-end">15</text><text x="191.5" y="370" width="35.33333333333334" height="40" class="ct-label ct-horizontal ct-end">16</text><text x="226.83333333333334" y="370" width="35.33333333333334" height="40" class="ct-label ct-horizontal ct-end">17</text><text x="262.1666666666667" y="370" width="35.333333333333314" height="40" class="ct-label ct-horizontal ct-end">18</text><text x="297.5" y="370" width="35.33333333333334" height="40" class="ct-label ct-horizontal ct-end">19</text><text x="332.83333333333337" y="370" width="35.33333333333334" height="40" class="ct-label ct-horizontal ct-end">20</text><text x="368.1666666666667" y="370" width="35.333333333333314" height="40" class="ct-label ct-horizontal ct-end">21</text><text x="403.5" y="370" width="35.33333333333337" height="40" class="ct-label ct-horizontal ct-end">22</text><text x="438.83333333333337" y="370" width="35.333333333333314" height="40" class="ct-label ct-horizontal ct-end">23</text><text x="474.1666666666667" y="370" width="35.333333333333314" height="40" class="ct-label ct-horizontal ct-end">24</text><text x="509.5" y="370" width="35.33333333333337" height="40" class="ct-label ct-horizontal ct-end">25</text><text x="544.8333333333334" y="370" width="35.333333333333314" height="40" class="ct-label ct-horizontal ct-end">26</text><text x="580.1666666666667" y="370" width="35.333333333333314" height="40" class="ct-label ct-horizontal ct-end">27</text><text x="615.5" y="370" width="35.33333333333337" height="40" class="ct-label ct-horizontal ct-end">28</text><text x="650.8333333333334" y="370" width="35.33333333333337" height="40" class="ct-label ct-horizontal ct-end">29</text><text x="686.1666666666667" y="370" width="35.33333333333326" height="40" class="ct-label ct-horizontal ct-end">30</text><text x="721.5" y="370" width="35.33333333333337" height="40" class="ct-label ct-horizontal ct-end">31</text><text x="756.8333333333334" y="370" width="35.33333333333337" height="40" class="ct-label ct-horizontal ct-end">1</text><text x="792.1666666666667" y="370" width="35.33333333333326" height="40" class="ct-label ct-horizontal ct-end">2</text><text x="827.5" y="370" width="35.33333333333337" height="40" class="ct-label ct-horizontal ct-end">3</text><text x="862.8333333333334" y="370" width="35.33333333333337" height="40" class="ct-label ct-horizontal ct-end">4</text><text x="898.1666666666667" y="370" width="35.33333333333326" height="40" class="ct-label ct-horizontal ct-end">5</text><text x="933.5" y="370" width="35.33333333333337" height="40" class="ct-label ct-horizontal ct-end">6</text><text x="968.8333333333334" y="370" width="35.33333333333337" height="40" class="ct-label ct-horizontal ct-end">7</text><text x="1004.1666666666667" y="370" width="35.33333333333337" height="40" class="ct-label ct-horizontal ct-end">8</text><text x="1039.5" y="370" width="35.33333333333326" height="40" class="ct-label ct-horizontal ct-end">9</text><text x="1074.8333333333335" y="370" width="35.33333333333337" height="40" class="ct-label ct-horizontal ct-end">10</text><text x="1110.1666666666667" y="370" width="35.33333333333326" height="40" class="ct-label ct-horizontal ct-end">11</text><text x="1145.5" y="370" width="30" height="40" class="ct-label ct-horizontal ct-end">12</text><text y="354.5" x="80" height="38.57142857142857" width="60" class="ct-label ct-vertical ct-start">0</text><text y="315.92857142857144" x="80" height="38.57142857142857" width="60" class="ct-label ct-vertical ct-start">100</text><text y="277.3571428571429" x="80" height="38.57142857142857" width="60" class="ct-label ct-vertical ct-start">200</text><text y="238.78571428571428" x="80" height="38.57142857142857" width="60" class="ct-label ct-vertical ct-start">300</text><text y="200.21428571428572" x="80" height="38.571428571428584" width="60" class="ct-label ct-vertical ct-start">400</text><text y="161.64285714285714" x="80" height="38.571428571428555" width="60" class="ct-label ct-vertical ct-start">500</text><text y="123.07142857142858" x="80" height="38.571428571428584" width="60" class="ct-label ct-vertical ct-start">600</text><text y="84.5" x="80" height="30" width="60" class="ct-label ct-vertical ct-start">700</text></g><text class="ct-axis-title ct-label" x="620" y="400" dominant-baseline="text-after-edge" text-anchor="middle">Days</text><text class="ct-axis-title ct-label" x="20" y="215" transform="rotate(-90, 20, 215)" dominant-baseline="hanging" text-anchor="middle">Contributions</text></svg>
    <style>
  /* === inyectado por scripts/inject-activity-animation.py === */
  /* Estilos autosuficientes: no dependen del CSS del servicio externo. */
  .ct-line  { fill: none; stroke: #BB9AF7; stroke-width: 4px; stroke-dasharray: 5000; }
  .ct-point { stroke: #F7768E; stroke-width: 10px; stroke-linecap: round; }
  .ct-area  { stroke: none; fill: #70a5fd; fill-opacity: 0.1; }

  @keyframes act-line {
    0%   { stroke-dashoffset: 5000; opacity: 0;
           animation-timing-function: cubic-bezier(0.42, 0, 0.58, 1); }
    4%   { opacity: 1; }
    25%  { stroke-dashoffset: 0; opacity: 1;
           animation-timing-function: linear; }
    87%  { stroke-dashoffset: 0; opacity: 1;
           animation-timing-function: cubic-bezier(0.25, 0.1, 0.25, 1); }
    100% { stroke-dashoffset: 0; opacity: 0; }
  }
  @keyframes act-area {
    0%   { opacity: 0;
           animation-timing-function: cubic-bezier(0.25, 0.1, 0.25, 1); }
    12%  { opacity: 0; }
    30%  { opacity: 1;
           animation-timing-function: linear; }
    87%  { opacity: 1;
           animation-timing-function: cubic-bezier(0.25, 0.1, 0.25, 1); }
    100% { opacity: 0; }
  }
  @keyframes act-point {
    0%   { opacity: 0;
           animation-timing-function: cubic-bezier(0.16, 1, 0.3, 1); }
    3%   { opacity: 1;
           animation-timing-function: linear; }
    87%  { opacity: 1;
           animation-timing-function: cubic-bezier(0.25, 0.1, 0.25, 1); }
    100% { opacity: 0; }
  }
  .ct-line  { animation: act-line  14s linear infinite; }
  .ct-area  { opacity: 0; animation: act-area  14s linear infinite; }
  .ct-point { opacity: 0; animation: act-point 14s linear infinite var(--d, 0s); }

  /* Accesibilidad: sin movimiento, gráfico completo y estático. */
  @media (prefers-reduced-motion: reduce) {
    .ct-line, .ct-area, .ct-point {
      animation: none !important;
      opacity: 1 !important;
      stroke-dashoffset: 0 !important;
    }
  }
</style></svg>
